<?xml version="1.0" ?><svg xmlns="http://www.w3.org/2000/svg" xmlns:xlink="http://www.w3.org/1999/xlink" version="1.1" viewBox="0 0 64 64" style="enable-background:new 0 0 64 64;" xml:space="preserve"><g id="clematic"/><g id="begonia"/><g id="bluebell"/><g id="hibiscus"/><g id="violet"/><g id="orchid"/><g id="peach_lily"/><g id="sanseveriera"/><g id="monstera"/><g id="lotus"/><g id="tulip"/><g id="sunflower"/><g id="jasmine"/><g id="cactus_1_"/><g id="aloevera"/><g id="bamboo"/><g id="bonsai"><g><path d="M57,19.7c0.7-1.1,1-2.4,1-3.7c0-3.9-3.1-7-7-7c-0.8,0-1.5,0.1-2.3,0.4C48.1,7.4,46.2,6,44,6c-0.7,0-1.4,0.1-2,0.4    C40.8,4.3,38.5,3,36,3c-1.4,0-2.8,0.4-4,1.3C30.8,3.4,29.4,3,28,3c-2.5,0-4.8,1.3-6,3.4C21.4,6.1,20.7,6,20,6    c-2.2,0-4.1,1.4-4.7,3.4C14.5,9.1,13.8,9,13,9c-3.9,0-7,3.1-7,7c0,1.3,0.4,2.6,1,3.7c-2.4,1.1-4,3.6-4,6.3c0,3.9,3.1,7,7,7    c2.6,0,4.9-1.4,6.1-3.6c1,1.9,2.8,4.4,6.2,7.3c3,2.6,2,4.1,0.2,6.8c-1.1,1.6-2.2,3.3-2.5,5.5H16c-0.6,0-1,0.4-1,1v10    c0,0.6,0.4,1,1,1h32c0.6,0,1-0.4,1-1V50c0-0.6-0.4-1-1-1h-4.1c-0.3-2.2-1.5-3.9-2.5-5.5c-1.8-2.7-2.8-4.2,0.2-6.8    c3.4-3,5.3-5.5,6.2-7.3c1.2,2.1,3.5,3.6,6.1,3.6c3.9,0,7-3.1,7-7C61,23.2,59.4,20.8,57,19.7z M47,59H17v-8h30V59z M40.3,35.2    C36,39,38,42,39.8,44.6c0.9,1.4,1.8,2.7,2.1,4.4H22.1c0.3-1.6,1.2-3,2.1-4.4C26,42,28,39,23.7,35.2c-4.5-3.9-5.9-6.8-6.4-8.3    c0.8,0,1.6-0.3,2.3-0.7c0.6,1.3,2.1,3.5,4.9,5.7c1.2,0.9,2.3,1.4,3.2,1.4c0.5,0,0.9-0.1,1.3-0.4c1.6-1.2,1.3-4.2,0.5-7    c0.9,0.1,1.8,0,2.7-0.3c0.9,0.3,1.8,0.3,2.7,0.3c-0.8,2.8-1.1,5.9,0.5,7c0.4,0.3,0.8,0.4,1.3,0.4c0.9,0,2-0.5,3.2-1.4    c2.9-2.2,4.3-4.4,4.9-5.7c0.7,0.4,1.4,0.6,2.3,0.7C46.3,28.4,44.9,31.4,40.3,35.2z M27.6,27.4c0.6,2.5,0.3,3.7,0.1,3.9    c-0.1,0.1-0.7,0.1-2.1-1C25,29.9,24.5,29.5,24,29c0,0,0,0,0,0C25.4,29,26.7,28.4,27.6,27.4z M36.4,27.4c0.9,1,2.2,1.6,3.6,1.6    c0,0,0,0,0,0c-0.5,0.5-1,0.9-1.6,1.4c-1.3,1-2,1-2.1,1C36,31.1,35.8,29.9,36.4,27.4z M54,31c-2.8,0-5-2.2-5-5c0,0,0-0.1,0-0.1    c0-0.3-0.1-0.6-0.4-0.8c-0.2-0.1-0.4-0.2-0.6-0.2c-0.1,0-0.2,0-0.3,0C47.5,25,47.2,25,47,25c-0.9,0-1.7-0.4-2.3-1.1    c-0.3-0.3-0.7-0.4-1-0.3C43.3,23.7,43,24,43,24.4c-0.2,1.5-1.5,2.6-3,2.6c-1.5,0-2.7-1.1-2.9-2.5c0-0.3-0.2-0.6-0.5-0.7    c-0.3-0.2-0.6-0.2-0.9-0.1c-1.1,0.4-2.3,0.4-3.4,0c-0.2-0.1-0.5-0.1-0.7,0c-1.1,0.4-2.3,0.4-3.4,0c-0.3-0.1-0.6-0.1-0.9,0.1    c-0.3,0.2-0.4,0.4-0.5,0.7C26.7,25.9,25.5,27,24,27c-1.5,0-2.7-1.1-3-2.6c-0.1-0.4-0.3-0.7-0.7-0.8c-0.4-0.1-0.8,0-1,0.3    C18.7,24.6,17.9,25,17,25c-0.2,0-0.5,0-0.8-0.1c-0.3-0.1-0.6,0-0.9,0.2c-0.2,0.2-0.4,0.5-0.4,0.8l0,0.1c0,2.8-2.2,5-5,5    s-5-2.2-5-5c0-2.4,1.6-4.4,3.9-4.9c0.4-0.1,0.6-0.3,0.7-0.7c0.1-0.3,0-0.7-0.2-1C8.5,18.5,8,17.3,8,16c0-2.8,2.2-5,5-5    c0.9,0,1.7,0.2,2.5,0.7c0.3,0.2,0.7,0.2,1,0s0.5-0.5,0.5-0.8C17.1,9.3,18.4,8,20,8c0.6,0,1.3,0.2,1.8,0.6c0.3,0.2,0.6,0.3,0.9,0.2    c0.3-0.1,0.5-0.3,0.7-0.6C24.1,6.3,25.9,5,28,5c1.2,0,2.4,0.5,3.3,1.3c0.4,0.3,1,0.3,1.3,0C33.6,5.5,34.8,5,36,5    c2.1,0,3.9,1.3,4.7,3.2c0.1,0.3,0.4,0.5,0.7,0.6c0.3,0.1,0.6,0,0.9-0.2C42.7,8.2,43.4,8,44,8c1.6,0,2.9,1.3,3,2.9    c0,0.3,0.2,0.7,0.5,0.8c0.3,0.2,0.7,0.2,1,0c0.8-0.4,1.6-0.7,2.5-0.7c2.8,0,5,2.2,5,5c0,1.3-0.5,2.5-1.4,3.5    c-0.2,0.3-0.3,0.6-0.2,1c0.1,0.3,0.4,0.6,0.7,0.7c2.3,0.5,3.9,2.5,3.9,4.9C59,28.8,56.8,31,54,31z"/><path d="M12,25c-0.6,0-1,0.4-1,1c0,0.6-0.4,1-1,1s-1-0.4-1-1c0-0.6-0.4-1-1-1s-1,0.4-1,1c0,1.7,1.3,3,3,3s3-1.3,3-3    C13,25.4,12.6,25,12,25z"/><path d="M26,17c-0.6,0-1,0.4-1,1c0,0.6-0.4,1-1,1s-1-0.4-1-1c0-0.6-0.4-1-1-1s-1,0.4-1,1c0,0.6-0.4,1-1,1s-1-0.4-1-1    c0-0.6-0.4-1-1-1s-1,0.4-1,1c0,1.7,1.3,3,3,3c0.8,0,1.5-0.3,2-0.8c0.5,0.5,1.2,0.8,2,0.8c1.7,0,3-1.3,3-3C27,17.4,26.6,17,26,17z"/><path d="M48,17c-0.6,0-1,0.4-1,1c0,0.6-0.4,1-1,1s-1-0.4-1-1c0-0.6-0.4-1-1-1s-1,0.4-1,1c0,1.7,1.3,3,3,3s3-1.3,3-3    C49,17.4,48.6,17,48,17z"/><path d="M36,11c-0.6,0-1,0.4-1,1c0,0.6-0.4,1-1,1s-1-0.4-1-1c0-0.6-0.4-1-1-1s-1,0.4-1,1c0,1.7,1.3,3,3,3s3-1.3,3-3    C37,11.4,36.6,11,36,11z"/></g></g><g id="cacti"/><g id="cactus"/><g id="rose"/></svg>