<?xml version="1.0" ?><svg xmlns="http://www.w3.org/2000/svg" xmlns:xlink="http://www.w3.org/1999/xlink" version="1.1" viewBox="0 0 64 64" style="enable-background:new 0 0 64 64;" xml:space="preserve"><g id="clematic"/><g id="begonia"/><g id="bluebell"/><g id="hibiscus"/><g id="violet"/><g id="orchid"/><g id="peach_lily"/><g id="sanseveriera"/><g id="monstera"/><g id="lotus"/><g id="tulip"/><g id="sunflower"/><g id="jasmine"/><g id="cactus_1_"/><g id="aloevera"/><g id="bamboo"/><g id="bonsai"/><g id="cacti"><path d="M53,10c0-3.9-3.1-7-7-7c-3.1,0-5.7,2-6.6,4.8c-2.4-1.6-5.3-2.6-8.4-2.8V4c0-0.6-0.4-1-1-1s-1,0.4-1,1v1.1   c-3.9,0.2-7.5,1.8-10.3,4.3L18,8.6c-0.4-0.4-1-0.4-1.4,0s-0.4,1,0,1.4l0.7,0.7c-2.5,2.8-4,6.3-4.3,10.3H12c-0.6,0-1,0.4-1,1   s0.4,1,1,1h1c0.2,3.5,1.4,7.1,3.2,10.3l-0.9,0.9c-0.4,0.4-0.4,1,0,1.4c0.2,0.2,0.5,0.3,0.7,0.3s0.5-0.1,0.7-0.3l0.6-0.6   c1,1.5,2.1,2.8,3.4,3.9H12c-0.6,0-1,0.4-1,1v4c0,0.6,0.4,1,1,1h1v15c0,0.6,0.4,1,1,1h32c0.6,0,1-0.4,1-1V45h1c0.6,0,1-0.4,1-1v-4   c0-0.6-0.4-1-1-1h-8.7c1.2-1.1,2.4-2.4,3.4-3.9l0.6,0.6c0.2,0.2,0.5,0.3,0.7,0.3s0.5-0.1,0.7-0.3c0.4-0.4,0.4-1,0-1.4l-0.9-0.9   c1.8-3.2,3-6.9,3.2-10.3h1c0.6,0,1-0.4,1-1s-0.4-1-1-1h-1.1c-0.1-1.4-0.3-2.7-0.7-4C50,16.9,53,13.8,53,10z M46,5c2.8,0,5,2.2,5,5   s-2.2,5-5,5c-0.2,0-0.4,0-0.6-0.1c-1-2.2-2.5-4.2-4.4-5.8C41.5,6.8,43.6,5,46,5z M15,22c0-7.9,6.2-14.4,14-14.9V11h-1   c-0.6,0-1,0.4-1,1s0.4,1,1,1h1v7h-1c-0.6,0-1,0.4-1,1s0.4,1,1,1h1v7h-1c-0.6,0-1,0.4-1,1s0.4,1,1,1h1v8h-5.1   C18.8,35.6,15,28.4,15,22z M45,59H15V45h30V59z M47,43h-1H14h-1v-2h34V43z M36.1,39H31v-8h1c0.6,0,1-0.4,1-1s-0.4-1-1-1h-1v-7h1   c0.6,0,1-0.4,1-1s-0.4-1-1-1h-1v-7h1c0.6,0,1-0.4,1-1s-0.4-1-1-1h-1V7.1c7.8,0.5,14,7,14,14.9C45,28.4,41.2,35.6,36.1,39z"/></g><g id="cactus"/><g id="rose"/></svg>