<?xml version="1.0" encoding="UTF-8"?>
<svg version="1.1" xmlns="http://www.w3.org/2000/svg" width="512" height="512">
<path d="M0 0 C1.41082611 -0.00599898 2.82164897 -0.01280763 4.23246765 -0.02035522 C8.03457438 -0.03788792 11.83659085 -0.04270531 15.6387341 -0.0439868 C18.02444896 -0.04541676 20.41014149 -0.04970231 22.79585075 -0.05498123 C31.14842029 -0.07344281 39.50092636 -0.08165714 47.85351562 -0.08007812 C55.59073908 -0.07887933 63.32768244 -0.0999401 71.06483513 -0.13156545 C77.74640011 -0.15788478 84.42787452 -0.16843885 91.10949081 -0.16716731 C95.08275893 -0.16666204 99.05577799 -0.17209953 103.02899361 -0.19352341 C138.34756577 -0.37074889 167.37918895 6.25094493 193.88452148 31.10302734 C213.66222453 51.93723162 223.16083003 79.10936065 222.75952148 107.54052734 C222.75049805 108.77416016 222.74147461 110.00779297 222.73217773 111.27880859 C222.70888999 114.28292758 222.67618904 117.28661677 222.63452148 120.29052734 C223.4247168 120.57669922 224.21491211 120.86287109 225.02905273 121.15771484 C228.43751165 122.6396535 229.09988545 123.92894365 230.63452148 127.29052734 C234.49948713 138.68200503 232.76082087 149.92047422 229.63452148 161.29052734 C230.87202148 161.33177734 232.10952148 161.37302734 233.38452148 161.41552734 C239.69593683 162.10787656 245.37957229 164.78996056 250.63452148 168.29052734 C253.16586011 172.08380174 253.20599246 175.87208101 252.63452148 180.29052734 C251.19829579 186.28713979 249.57960446 192.1131685 246.25952148 197.35302734 C244.33148698 200.05628072 244.33148698 200.05628072 245.13452148 202.35302734 C245.62952148 202.99240234 246.12452148 203.63177734 246.63452148 204.29052734 C250.96022778 210.58246378 251.7927687 214.45276206 251.83764648 222.02099609 C251.84334656 222.77085281 251.84904663 223.52070953 251.85491943 224.29328918 C251.86434979 225.87934976 251.8708956 227.46542976 251.87475586 229.05151367 C251.88441877 231.45250663 251.91544187 233.85262723 251.94702148 236.25341797 C252.07132524 253.98333856 252.07132524 253.98333856 247.35913086 259.88891602 C243.74382967 263.32524782 240.42121085 263.74606979 235.63452148 264.29052734 C235.58833679 264.89389734 235.5421521 265.49726734 235.49456787 266.11892128 C234.14288049 283.66091295 232.56092595 301.17530743 230.88452148 318.68896484 C230.75511036 320.04493294 230.62575726 321.40090657 230.49645996 322.75688553 C229.8218783 329.83079715 229.14518299 336.90450301 228.46655273 343.97802734 C227.8387617 350.52230219 227.21600042 357.06704321 226.59543228 363.61200655 C226.05688333 369.28939032 225.51469471 374.96641916 224.96975327 380.64319289 C224.6466917 384.00930249 224.32505871 387.37553247 224.00720215 390.74213791 C223.65304899 394.48315616 223.2929385 398.22355676 222.93139648 401.96386719 C222.82952026 403.05388535 222.72764404 404.1439035 222.62268066 405.26695251 C220.51907455 426.7718707 220.51907455 426.7718707 213.63452148 434.29052734 C208.29270507 438.58452593 203.54065481 440.41207126 196.69810867 440.42195511 C195.69882694 440.42579625 194.6995452 440.4296374 193.66998219 440.43359494 C192.57427931 440.43272846 191.47857642 440.43186198 190.34967041 440.43096924 C189.18400126 440.43394036 188.01833211 440.43691148 186.81733966 440.43997264 C183.58096335 440.44715203 180.34461938 440.44983189 177.10823631 440.45057011 C173.61799907 440.45242167 170.12777332 440.45996953 166.63754272 440.46670532 C159.00525603 440.48028508 151.3729746 440.48631281 143.74067783 440.49071598 C138.97460634 440.49347901 134.20853686 440.49771648 129.44246674 440.50222015 C116.24537407 440.51441236 103.04828302 440.52471177 89.85118484 440.52809525 C88.58430909 440.52842459 88.58430909 440.52842459 87.29183988 440.5287606 C86.02194131 440.52908801 86.02194131 440.52908801 84.72638822 440.52942204 C83.01087014 440.52986551 81.29535206 440.53031207 79.57983398 440.53076172 C78.72887865 440.53098315 77.87792331 440.53120458 77.00118145 440.53143272 C63.21371492 440.53538045 49.42630125 440.55283391 35.63885513 440.57612124 C21.4818924 440.59983959 7.3249562 440.61229732 -6.83202672 440.61346316 C-14.78000216 440.61437965 -22.72790872 440.62012539 -30.67586517 440.63828278 C-37.44396229 440.65369029 -44.21196925 440.6588004 -50.98008057 440.65054467 C-54.43222166 440.64664045 -57.8841812 440.64755644 -61.3362999 440.66160202 C-65.08192082 440.67427796 -68.82707536 440.66846778 -72.57269287 440.65802002 C-73.65947287 440.66607642 -74.74625288 440.67413283 -75.8659656 440.68243337 C-83.80189587 440.63063988 -90.93330398 439.56226752 -97.00090027 433.86956787 C-105.06672348 424.53608936 -104.83995542 412.27289921 -105.84594727 400.58740234 C-106.04803341 398.41451102 -106.25211296 396.24180429 -106.45805359 394.0692749 C-106.88995382 389.48542169 -107.31109952 384.90076096 -107.7243042 380.31518555 C-108.34933602 373.4124404 -109.01650727 366.51426799 -109.69604492 359.61669922 C-109.92052346 357.33573619 -110.14498023 355.05477102 -110.36941528 352.77380371 C-110.48052769 351.64457993 -110.59164009 350.51535614 -110.70611954 349.35191345 C-111.59900853 340.23823604 -112.46885016 331.12231176 -113.34442139 322.00695801 C-113.79877505 317.2851717 -114.25596526 312.56366138 -114.71302509 307.84213638 C-115.15645506 303.25620117 -115.59772196 298.67005977 -116.03835106 294.08385468 C-116.24691757 291.91644796 -116.45623649 289.7491135 -116.6663456 287.58185577 C-116.95544559 284.59726335 -117.24154127 281.61239777 -117.52685547 278.62744141 C-117.61250763 277.74992218 -117.69815979 276.87240295 -117.78640747 275.96829224 C-118.15699474 272.0601796 -118.47300135 268.22195038 -118.36547852 264.29052734 C-119.39672852 264.22865234 -120.42797852 264.16677734 -121.49047852 264.10302734 C-125.87371954 263.18396068 -128.56897524 261.72933667 -131.36547852 258.29052734 C-133.95565205 252.55920205 -134.81473881 247.90561888 -134.76391602 241.66162109 C-134.76678619 240.86828873 -134.76965637 240.07495636 -134.77261353 239.25758362 C-134.77464097 237.59285766 -134.76920423 235.92810715 -134.7565918 234.26342773 C-134.74049677 231.73089908 -134.75649578 229.19996077 -134.77563477 226.66748047 C-134.77365252 225.04052386 -134.76980922 223.41356823 -134.76391602 221.78662109 C-134.76998871 221.03851669 -134.7760614 220.29041229 -134.78231812 219.51963806 C-134.70053909 213.34140259 -133.41465227 208.57389239 -129.17797852 203.85302734 C-128.57985352 203.33740234 -127.98172852 202.82177734 -127.36547852 202.29052734 C-129.2337909 197.56326252 -131.23715464 192.89766657 -133.24438477 188.22802734 C-135.32849124 182.76723268 -136.23553196 177.10503088 -135.36547852 171.29052734 C-130.77693224 164.07995462 -120.11519268 161.81986773 -112.36547852 159.29052734 C-112.69032227 158.32566406 -112.69032227 158.32566406 -113.02172852 157.34130859 C-116.36856008 146.47960059 -117.03425059 134.91474096 -112.36547852 124.29052734 C-109.80297852 121.60302734 -109.80297852 121.60302734 -107.36547852 120.29052734 C-106.70547852 120.29052734 -106.04547852 120.29052734 -105.36547852 120.29052734 C-105.38642578 119.57735352 -105.40737305 118.86417969 -105.42895508 118.12939453 C-106.27315898 84.84211405 -99.8415823 56.00221554 -76.36547852 31.29052734 C-55.92258466 10.36662422 -29.05915198 -0.02030121 0 0 Z M-68.01342773 47.66796875 C-86.33702821 69.65761281 -89.16599881 93.63563015 -88.36547852 121.29052734 C-87.15202759 121.67035767 -87.15202759 121.67035767 -85.9140625 122.05786133 C-84.31026733 122.57328491 -84.31026733 122.57328491 -82.67407227 123.09912109 C-81.61760498 123.43484131 -80.5611377 123.77056152 -79.47265625 124.11645508 C-75.70132569 125.54148287 -72.64671768 127.46773897 -69.40063477 129.82568359 C-67.13158819 131.4588745 -64.76863036 132.86406547 -62.36547852 134.29052734 C-62.35613281 133.12183105 -62.34678711 131.95313477 -62.3371582 130.74902344 C-62.29680301 126.34647716 -62.2309264 121.94459684 -62.15795898 117.54248047 C-62.13001008 115.6496649 -62.10866814 113.75673828 -62.09448242 111.86376953 C-61.92626237 90.66804362 -57.81102036 72.92104574 -42.36547852 57.29052734 C-28.46391176 45.81282351 -14.00019151 40.9867823 3.80493164 41 C5.11009735 40.99328278 6.41526306 40.98656555 7.75997925 40.97964478 C11.32233439 40.96206484 14.88459329 40.95729266 18.44698763 40.9560132 C20.67971944 40.95458592 22.91242723 40.95030535 25.14515305 40.94501877 C32.95493862 40.92654144 40.76465618 40.91834483 48.57446289 40.91992188 C55.82035901 40.92112104 63.06595619 40.90005718 70.31177676 40.86843455 C76.55925299 40.84215413 82.80663235 40.83155955 89.05416334 40.83283269 C92.77360845 40.8333391 96.4927879 40.82783672 100.21217728 40.80647659 C104.37090211 40.78324375 108.52897154 40.79268642 112.68774414 40.8046875 C113.89654236 40.79344849 115.10534058 40.78220947 116.35076904 40.77062988 C134.18646513 40.90051016 149.96542111 47.77135715 162.63452148 60.29052734 C172.97202611 72.81110748 178.82943533 86.8093886 179.04858398 103.04052734 C179.06795013 103.93924561 179.08731628 104.83796387 179.10726929 105.76391602 C179.16656756 108.6060263 179.21324956 111.44817819 179.25952148 114.29052734 C179.29774715 116.22934611 179.33680148 118.16814872 179.37670898 120.10693359 C179.47222758 124.83466545 179.55644009 129.56247667 179.63452148 134.29052734 C180.57457031 133.663479 181.51461914 133.03643066 182.4831543 132.39038086 C185.10337841 130.64444442 187.71964094 128.90475587 190.38452148 127.22802734 C191.14249023 126.74205078 191.90045898 126.25607422 192.68139648 125.75537109 C196.83419873 123.69544934 201.17635823 122.52135862 205.63452148 121.29052734 C206.23421494 92.86813301 203.22434446 68.44446328 183.63452148 46.29052734 C182.84432617 45.39333984 182.05413086 44.49615234 181.23999023 43.57177734 C167.06508074 28.44053962 147.26416447 18.33869688 126.41549301 17.09914017 C122.81585664 17.01816662 119.22091066 16.99741315 115.62036133 17 C114.24732097 16.99400049 112.87428395 16.98719173 111.50125122 16.97964478 C107.80251362 16.96211889 104.10386879 16.95729503 100.40509367 16.9560132 C98.08438013 16.95458302 95.76368952 16.95029709 93.44298172 16.94501877 C85.31849952 16.92656051 77.19408255 16.91834257 69.06958008 16.91992188 C61.54250731 16.92112107 54.01572227 16.90005169 46.48872221 16.86843455 C39.98891196 16.84212267 33.48919481 16.83156082 26.98933184 16.83283269 C23.12396314 16.83333811 19.2588504 16.82789179 15.39353561 16.80647659 C-17.45975217 16.63715048 -45.29525771 22.11695133 -68.01342773 47.66796875 Z M-36.36547852 75.29052734 C-44.7282075 85.95021923 -45.95109381 97.89453974 -45.61547852 111.04052734 C-45.59535314 112.43112619 -45.57711318 113.82175365 -45.56079102 115.21240234 C-45.51412258 118.57252972 -45.44866336 121.93113956 -45.36547852 125.29052734 C-44.54563477 124.94119141 -43.72579102 124.59185547 -42.88110352 124.23193359 C-41.80344727 123.77689453 -40.72579102 123.32185547 -39.61547852 122.85302734 C-38.54813477 122.40056641 -37.48079102 121.94810547 -36.38110352 121.48193359 C-26.2082844 117.46287941 -12.7520633 117.69793016 -2.70532227 122.00146484 C0.47393585 123.75297599 3.29871778 125.78602694 6.07592773 128.11865234 C7.57594734 129.49084771 7.57594734 129.49084771 9.63452148 129.29052734 C10.67965444 131.35725422 11.68367933 133.40773428 12.57983398 135.54443359 C14.27628933 138.86431806 15.79077723 141.57941217 19.41577148 142.97753906 C24.09039707 144.19226749 28.84669931 144.7212746 33.63452148 145.29052734 C34.97516603 145.59311796 36.31459279 145.90754285 37.63452148 146.29052734 C38.16239258 145.20384766 38.16239258 145.20384766 38.70092773 144.09521484 C42.81156196 136.04567001 46.8234746 130.22319828 55.63452148 127.29052734 C63.20992439 126.17618236 69.07235863 127.06316309 75.43920898 131.37255859 C80.15604505 135.49349544 82.91897617 140.73371703 85.63452148 146.29052734 C86.52139648 146.00177734 87.40827148 145.71302734 88.32202148 145.41552734 C90.87756232 144.63321893 93.10022876 144.25701491 95.78295898 144.06396484 C102.35145518 143.7355988 102.35145518 143.7355988 107.52514648 140.18505859 C108.48365009 138.44447925 109.39728265 136.6785266 110.26733398 134.89208984 C114.41354753 127.00243777 122.62529239 123.3002066 130.63452148 120.29052734 C134.81963606 119.0924861 138.93394897 119.06912617 143.25952148 119.04052734 C144.01620117 119.01990234 144.77288086 118.99927734 145.55249023 118.97802734 C151.66228414 118.9366751 156.88366562 120.28641831 162.63452148 122.29052734 C163.98403922 96.5857981 163.98403922 96.5857981 152.56420898 74.31005859 C151.92741211 73.64361328 151.29061523 72.97716797 150.63452148 72.29052734 C149.97709961 71.59314453 149.31967773 70.89576172 148.64233398 70.17724609 C140.33011375 62.09338356 129.76205044 57.19582173 118.13400269 57.14335632 C117.04077194 57.13620102 115.9475412 57.12904572 114.82118225 57.12167358 C113.63149338 57.11898468 112.4418045 57.11629578 111.21606445 57.11352539 C109.9552858 57.10695419 108.69450714 57.100383 107.39552307 57.09361267 C103.22259783 57.07264094 99.04967252 57.06221511 94.87670898 57.05224609 C93.43534451 57.04819563 91.99398022 57.04407862 90.55261612 57.03989601 C83.77750053 57.02085759 77.00239573 57.00662508 70.22725856 56.99828404 C62.4297005 56.98852354 54.63242721 56.96222967 46.8349694 56.92178315 C40.79313074 56.89152858 34.75137327 56.87680627 28.70946038 56.87350303 C25.1079753 56.87116274 21.50679489 56.86233706 17.90539169 56.83704185 C13.87986367 56.80922345 9.85496403 56.81362062 5.8293457 56.82055664 C4.65180222 56.80774658 3.47425873 56.79493652 2.2610321 56.78173828 C-13.09401152 56.87778174 -26.44247904 63.61379865 -36.36547852 75.29052734 Z M-41.60375977 145.89990234 C-44.0388004 149.2042147 -45.69410295 152.54664607 -47.36547852 156.29052734 C-49.01791561 157.94296444 -51.16099711 157.78538941 -53.38134766 158.13891602 C-64.13178588 159.92018271 -69.87403885 163.66883822 -76.23657227 172.45849609 C-79.52496081 177.79501592 -78.97524313 184.26824541 -78.36547852 190.29052734 C-76.40830507 196.32446871 -73.29428219 201.29420004 -68.36547852 205.29052734 C-67.70547852 205.29052734 -67.04547852 205.29052734 -66.36547852 205.29052734 C-66.16889044 206.70596149 -65.98360306 208.12296766 -65.80297852 209.54052734 C-65.69856445 210.32943359 -65.59415039 211.11833984 -65.48657227 211.93115234 C-65.36342959 214.33044843 -65.72624653 215.99385815 -66.36547852 218.29052734 C-67.35770801 226.79767532 -64.83508673 233.41451299 -59.61547852 240.10302734 C-54.74609505 245.42968794 -48.37377073 247.88151793 -41.30297852 248.60302734 C-34.84443572 248.09044458 -28.75652428 245.88455785 -23.36547852 242.29052734 C-17.95475426 241.36674515 -14.52258259 243.63808061 -9.91235352 246.11083984 C-6.33955919 247.76572311 -3.27441109 248.07336442 0.63452148 248.29052734 C0.59327148 247.15615234 0.55202148 246.02177734 0.50952148 244.85302734 C0.49927807 239.09622685 1.82209723 233.72780011 3.63452148 228.29052734 C3.10342773 228.03658203 2.57233398 227.78263672 2.02514648 227.52099609 C-4.02333708 224.57401596 -4.02333708 224.57401596 -6.55297852 222.47802734 C-8.31728075 221.02346667 -8.31728075 221.02346667 -10.52954102 221.69287109 C-11.46540039 221.89009766 -12.40125977 222.08732422 -13.36547852 222.29052734 C-22.63917534 223.03242309 -30.63763385 223.06887944 -38.36547852 217.29052734 C-44.63730795 211.81606522 -47.79409183 205.85148787 -48.64282227 197.59130859 C-48.933817 189.24557962 -47.48118819 182.54044662 -42.17797852 175.97802734 C-36.36892558 169.78663759 -29.31720672 167.16166116 -20.92797852 166.85302734 C-13.181131 166.86911633 -7.8910563 169.33795422 -1.36547852 173.29052734 C-0.70547852 173.62052734 -0.04547852 173.95052734 0.63452148 174.29052734 C0.58231445 173.05689453 0.58231445 173.05689453 0.52905273 171.79833984 C0.39068739 166.09241647 0.3711993 161.34335806 2.44702148 155.97802734 C3.40128928 153.20524923 3.82372034 151.88755483 2.93139648 149.07177734 C-0.54499274 143.17511715 -5.73530576 138.29252748 -12.18579102 135.79833984 C-24.94614612 132.82549726 -33.45296644 136.22784111 -41.60375977 145.89990234 Z M122.16577148 145.97412109 C120.46844128 148.54176602 119.82893195 150.22370224 119.63452148 153.29052734 C119.95727051 153.91209717 120.28001953 154.53366699 120.61254883 155.17407227 C121.75465941 157.53932708 121.86707743 159.0116112 121.82983398 161.61865234 C121.82338867 162.41787109 121.81694336 163.21708984 121.81030273 164.04052734 C121.79354492 164.86552734 121.77678711 165.69052734 121.75952148 166.54052734 C121.75049805 167.38099609 121.74147461 168.22146484 121.73217773 169.08740234 C121.70867965 171.15523339 121.67281056 173.22291729 121.63452148 175.29052734 C122.21459961 174.88060547 122.79467773 174.47068359 123.39233398 174.04833984 C124.17350586 173.50951172 124.95467773 172.97068359 125.75952148 172.41552734 C126.52522461 171.88185547 127.29092773 171.34818359 128.07983398 170.79833984 C135.22865693 166.57900398 142.54154488 166.5548022 150.63452148 167.29052734 C157.2334451 169.05724351 163.26090817 172.70116087 167.07592773 178.47021484 C171.59985449 186.33230978 173.23482688 193.98075178 170.95092773 202.98583984 C167.74440037 211.68737054 162.97158615 217.2763851 154.63452148 221.29052734 C151.00671079 222.50245531 147.50021615 222.42364516 143.69702148 222.41552734 C142.49174805 222.41810547 141.28647461 222.42068359 140.04467773 222.42333984 C136.63452148 222.29052734 136.63452148 222.29052734 134.01733398 221.60693359 C130.68794604 221.16483454 129.22886707 222.30598034 126.44702148 224.10302734 C125.5872168 224.64572266 124.72741211 225.18841797 123.84155273 225.74755859 C121.56553324 227.24326863 121.56553324 227.24326863 119.63452148 229.29052734 C119.95163086 230.13873047 120.26874023 230.98693359 120.59545898 231.86083984 C121.66323381 235.38529959 122.03493227 238.49723691 122.25952148 242.16552734 C122.33428711 243.31794922 122.40905273 244.47037109 122.48608398 245.65771484 C122.53506836 246.52654297 122.58405273 247.39537109 122.63452148 248.29052734 C127.73709349 248.00705112 131.23624743 247.15414707 135.75952148 244.72802734 C142.22535871 241.3524076 142.22535871 241.3524076 146.63452148 242.29052734 C148.99575145 243.45661806 151.2436794 244.71827195 153.48608398 246.09912109 C159.2851512 249.31496746 165.90198682 248.98260964 172.13452148 247.22802734 C178.60384208 244.83694858 183.68526016 240.49622912 187.07202148 234.47802734 C189.77419058 228.33238612 190.21220402 221.77655553 188.63452148 215.29052734 C188.25952148 211.79052734 188.25952148 211.79052734 188.63452148 208.29052734 C190.75952148 205.85302734 190.75952148 205.85302734 193.63452148 203.29052734 C199.57741103 196.31598704 202.21991653 190.44351297 202.00561523 181.16552734 C201.01241182 173.47081461 196.8451072 167.47885079 190.87670898 162.69287109 C185.91187814 159.58768943 180.61877504 158.38811358 174.82202148 158.10302734 C171.15366315 157.16795561 170.86710386 156.67515915 168.94702148 153.60302734 C168.16094859 152.17380389 167.38939084 150.73647428 166.63452148 149.29052734 C162.94506231 143.22077193 158.53314592 138.41190047 151.74389648 135.79833984 C139.25464053 132.79166711 130.32371025 136.66694889 122.16577148 145.97412109 Z M-98.36547852 137.29052734 C-98.90263 146.81999262 -97.39348378 154.70690782 -91.36547852 162.29052734 C-90.70547852 162.29052734 -90.04547852 162.29052734 -89.36547852 162.29052734 C-88.24855861 160.93784598 -87.19627009 159.53143177 -86.17797852 158.10302734 C-82.97140128 153.83208203 -79.8611916 151.13475399 -75.36547852 148.29052734 C-76.87941795 143.74870905 -80.4270508 141.63700112 -84.36547852 139.29052734 C-89.17626098 137.1410288 -93.18946293 137.11204405 -98.36547852 137.29052734 Z M194.63452148 144.29052734 C194.63452148 144.95052734 194.63452148 145.61052734 194.63452148 146.29052734 C196.31901896 147.46171035 198.05948147 148.55295397 199.82202148 149.60302734 C204.00548732 152.17995604 207.39942339 154.60920883 210.63452148 158.29052734 C211.28544738 157.04317167 211.93003818 155.79250902 212.57202148 154.54052734 C212.93166992 153.84443359 213.29131836 153.14833984 213.66186523 152.43115234 C215.34337601 148.73047804 215.75657244 145.58999222 215.69702148 141.54052734 C215.68799805 140.74130859 215.67897461 139.94208984 215.66967773 139.11865234 C215.65807617 138.51537109 215.64647461 137.91208984 215.63452148 137.29052734 C207.94395672 136.62178258 200.48243618 139.16856068 194.63452148 144.29052734 Z M59.63452148 143.29052734 C55.35956284 147.68423484 53.49389398 151.78230783 51.62670898 157.60693359 C49.04702148 164.58427734 49.04702148 164.58427734 45.63452148 166.29052734 C40.73977435 166.73361619 38.03341176 165.72603016 33.82202148 163.29052734 C28.31624701 160.39022523 24.80608919 159.39465461 18.63452148 160.29052734 C16.43286012 163.59301939 16.38674942 165.00632913 16.93920898 168.84521484 C17.81848203 171.93748973 19.23563474 174.52497706 20.75952148 177.35302734 C24.1248956 183.7601819 24.1248956 183.7601819 23.75952148 187.35302734 C22.47626749 190.7037461 21.61085146 191.41731268 18.63452148 193.29052734 C16.26733398 194.09912109 16.26733398 194.09912109 13.75952148 194.72802734 C8.35582828 196.24233665 4.63770085 198.28734798 0.63452148 202.29052734 C0.32834419 205.22337607 0.32834419 205.22337607 1.63452148 208.29052734 C6.432416 212.85310278 12.86659658 214.48971759 19.09545898 216.20068359 C21.63452148 217.29052734 21.63452148 217.29052734 22.98999023 219.21240234 C24.03476341 222.58100433 23.47478497 224.87345585 22.63452148 228.29052734 C21.83879895 229.79026203 21.00245441 231.26889373 20.13452148 232.72802734 C17.57606296 237.08633169 16.63452148 240.21636104 16.63452148 245.29052734 C17.27389445 248.00481314 17.27389445 248.00481314 19.63452148 249.29052734 C26.80002551 249.51800366 31.61728327 247.02745021 37.73999023 243.47021484 C41.25441903 242.03788354 43.03328798 242.1847544 46.63452148 243.29052734 C49.87611942 245.50694286 50.49774061 248.43756256 51.57202148 252.10302734 C53.67534117 258.72109162 53.67534117 258.72109162 57.63452148 264.29052734 C60.51294367 265.78433842 60.51294367 265.78433842 63.63452148 265.29052734 C68.25620392 261.32908526 69.81188496 256.68415012 71.64233398 250.97412109 C72.72606172 248.04293624 73.68891542 245.75063812 75.63452148 243.29052734 C79.32574246 241.97740391 81.1083192 242.0933647 84.78295898 243.47021484 C85.84772461 244.02966797 86.91249023 244.58912109 88.00952148 245.16552734 C93.09735023 247.66297753 96.95635189 249.29052734 102.63452148 249.29052734 C103.62452148 248.63052734 104.61452148 247.97052734 105.63452148 247.29052734 C106.70300186 239.92988473 104.61846728 235.53360028 100.94702148 229.18505859 C99.44042528 225.86247588 99.08821038 223.89520507 99.63452148 220.29052734 C102.33060501 216.57134768 105.10487369 215.58606783 109.44702148 214.41552734 C115.15609744 212.66856408 118.43596742 210.48908141 122.63452148 206.29052734 C122.67324835 203.95513828 122.67324835 203.95513828 121.63452148 201.29052734 C116.70995745 196.80370234 111.67995856 195.13552715 105.30639648 193.38037109 C102.19907967 192.11291292 101.14474864 191.27477757 99.63452148 188.29052734 C99.00218439 183.4228491 100.21782187 180.65690376 102.63452148 176.47802734 C105.55857044 170.97999164 106.25015268 167.44683932 105.63452148 161.29052734 C102.31502374 159.63077847 99.20819757 159.66583751 95.63452148 160.29052734 C93.58171277 161.22312786 91.5615504 162.22961167 89.57202148 163.29052734 C81.72418309 167.45690813 81.72418309 167.45690813 76.63452148 166.29052734 C73.27080885 163.48743348 72.32480867 160.50297703 71.19702148 156.41552734 C69.81376299 151.41336555 68.10563347 148.17486695 64.63452148 144.29052734 C61.96991055 143.25180047 61.96991055 143.25180047 59.63452148 143.29052734 Z M-117.36547852 179.29052734 C-116.10269893 187.26448384 -112.00247971 193.48856228 -105.55297852 198.29052734 C-100.90571493 201.2876245 -96.81155207 202.49996828 -91.36547852 203.29052734 C-91.57043945 202.63568359 -91.77540039 201.98083984 -91.98657227 201.30615234 C-93.83663987 195.03893767 -94.71227253 189.36328517 -94.76391602 182.82177734 C-95.14183712 180.10405113 -95.14183712 180.10405113 -97.56469727 178.46630859 C-103.84995888 175.82772596 -111.18697695 176.61874288 -117.36547852 179.29052734 Z M218.63452148 177.29052734 C218.58553711 178.18513672 218.53655273 179.07974609 218.48608398 180.00146484 C218.03763802 187.25391855 217.31338557 194.21647867 215.63452148 201.29052734 C223.27729043 198.74293769 228.5870355 194.18390192 232.63452148 187.29052734 C234.08509044 184.25124001 234.63452148 182.66478479 234.63452148 179.29052734 C229.23991196 177.01911281 224.37294399 177.08639374 218.63452148 177.29052734 Z M-31.17797852 188.54052734 C-32.71573509 192.10164784 -32.8383852 194.4397158 -32.36547852 198.29052734 C-30.33881613 201.99442756 -28.88503336 203.94415745 -25.36547852 206.29052734 C-23.07899003 206.53160061 -23.07899003 206.53160061 -20.67797852 206.41552734 C-19.86973633 206.39748047 -19.06149414 206.37943359 -18.22875977 206.36083984 C-17.61387695 206.33763672 -16.99899414 206.31443359 -16.36547852 206.29052734 C-16.26750977 205.57767578 -16.16954102 204.86482422 -16.06860352 204.13037109 C-15.10714291 197.97205011 -13.82723745 193.48316574 -10.36547852 188.29052734 C-13.60260002 185.05340584 -15.73354691 182.93305278 -20.42797852 182.79052734 C-25.52323789 183.43754441 -27.9648437 184.55180827 -31.17797852 188.54052734 Z M134.63452148 186.29052734 C133.75605127 188.15803297 133.75605127 188.15803297 133.63452148 190.29052734 C134.56718631 192.2201247 134.56718631 192.2201247 136.00952148 194.04052734 C138.82776312 198.19372555 139.36803206 201.316058 139.63452148 206.29052734 C146.66966055 206.71161071 146.66966055 206.71161071 152.63452148 203.29052734 C154.94864646 199.97361488 155.91260543 197.29367242 155.75952148 193.29052734 C155.0097485 189.09824829 153.01978293 186.88155086 149.66967773 184.35693359 C144.50787991 181.65219116 139.06947008 182.52754066 134.63452148 186.29052734 Z M-117.36547852 216.29052734 C-117.36547852 226.52052734 -117.36547852 236.75052734 -117.36547852 247.29052734 C-103.50547852 247.29052734 -89.64547852 247.29052734 -75.36547852 247.29052734 C-77.84047852 242.34052734 -77.84047852 242.34052734 -80.36547852 237.29052734 C-81.12488378 234.17515146 -81.74041121 231.309323 -82.17797852 228.16552734 C-82.35876953 227.01697266 -82.35876953 227.01697266 -82.54321289 225.84521484 C-82.83216617 223.99591384 -83.10107555 222.14349774 -83.36547852 220.29052734 C-84.52305664 220.16935547 -85.68063477 220.04818359 -86.87329102 219.92333984 C-88.41239144 219.75441419 -89.95145189 219.58512403 -91.49047852 219.41552734 C-92.25102539 219.33689453 -93.01157227 219.25826172 -93.79516602 219.17724609 C-97.15349883 218.80088121 -100.05080939 218.40799239 -103.23266602 217.22021484 C-107.57841242 215.76895263 -107.57841242 215.76895263 -117.36547852 216.29052734 Z M217.82202148 217.72802734 C214.10046427 218.89347718 210.49461765 219.71010412 206.63452148 220.29052734 C206.4759668 221.31791016 206.31741211 222.34529297 206.15405273 223.40380859 C205.91917457 224.80368246 205.68345109 226.20341467 205.44702148 227.60302734 C205.34583008 228.27398437 205.24463867 228.94494141 205.14038086 229.63623047 C203.96066238 236.42758281 201.70853415 240.52769947 198.63452148 247.29052734 C210.51452148 247.29052734 222.39452148 247.29052734 234.63452148 247.29052734 C234.63452148 237.06052734 234.63452148 226.83052734 234.63452148 216.29052734 C225.73095968 216.04445824 225.73095968 216.04445824 217.82202148 217.72802734 Z M-25.30297852 261.66552734 C-30.78058373 264.07252429 -36.16939383 264.41542406 -42.10522461 264.40405273 C-43.07214233 264.40427177 -43.07214233 264.40427177 -44.05859375 264.40449524 C-46.16873657 264.40380396 -48.2787888 264.39604868 -50.38891602 264.38818359 C-51.86007641 264.38631662 -53.33123744 264.38489404 -54.80239868 264.38389587 C-58.65913636 264.38009267 -62.5158359 264.37028132 -66.37255859 264.35919189 C-70.31420374 264.34893037 -74.25585509 264.34438812 -78.19750977 264.33935547 C-85.92018333 264.32865693 -93.64282556 264.31160711 -101.36547852 264.29052734 C-98.66899776 295.11711448 -95.84519797 325.93044122 -92.90112305 356.734375 C-92.45335491 361.42282932 -92.00962838 366.11164199 -91.5690918 370.80078125 C-91.02566524 376.58498397 -90.47583837 382.36854386 -89.92129898 388.15169144 C-89.71416304 390.32274019 -89.50923263 392.49400063 -89.30663681 394.66547775 C-89.02627464 397.66530799 -88.73765834 400.66423618 -88.44702148 403.66308594 C-88.36698883 404.53969879 -88.28695618 405.41631165 -88.20449829 406.31948853 C-87.68234842 414.87977515 -87.68234842 414.87977515 -83.59477133 421.95944452 C-80.99336823 423.51270974 -79.52530671 423.66804775 -76.51438999 423.67363739 C-75.0440428 423.68722235 -75.0440428 423.68722235 -73.54399163 423.70108175 C-72.46958807 423.69575383 -71.39518451 423.6904259 -70.28822327 423.68493652 C-69.14493874 423.69102763 -68.0016542 423.69711873 -66.82372469 423.70339441 C-63.6498702 423.71717722 -60.47634353 423.71747149 -57.30247414 423.71201944 C-53.8797545 423.70935206 -50.45710139 423.72387549 -47.03440857 423.7361145 C-40.32891036 423.75718278 -33.62349859 423.76170857 -26.9179712 423.75992662 C-21.46853685 423.75861975 -16.01912951 423.76241928 -10.56970024 423.76985168 C-9.00088308 423.77195084 -7.43206593 423.77404844 -5.86324877 423.7761445 C-5.08244262 423.77718803 -4.30163648 423.77823156 -3.49716955 423.77930671 C11.27429772 423.79821455 26.04571534 423.79715715 40.8171897 423.79033738 C54.33514231 423.78476088 67.85290546 423.80559087 81.37081378 423.83869785 C95.24640317 423.87241747 109.12190176 423.88760539 122.9975329 423.88298082 C130.78951658 423.88073445 138.58132513 423.88600367 146.37327385 423.91087341 C153.00647225 423.93186425 159.63939948 423.93550078 166.27260893 423.91657382 C169.65765821 423.90740218 173.04220159 423.90631546 176.42721176 423.92692947 C180.09536898 423.94500564 183.76216783 423.93245727 187.43028259 423.9119873 C189.03854185 423.93076408 189.03854185 423.93076408 190.67929119 423.94992018 C195.32539207 423.8941137 197.85495595 423.82361291 201.75830364 421.15441036 C203.90200753 417.8822332 204.45929787 415.72492214 204.85824585 411.84693909 C204.99643108 410.60696733 205.13461632 409.36699558 205.27698898 408.08944893 C205.39497471 406.83580481 205.51296043 405.58216068 205.63452148 404.29052734 C205.75749226 403.16380049 205.88046303 402.03707363 206.00716019 400.87620354 C206.3828873 397.3822634 206.72266638 393.88627005 207.05493164 390.38793945 C207.18202011 389.07719452 207.30910858 387.76644958 207.44004822 386.41598511 C207.78379127 382.86935168 208.12355161 379.32234775 208.46238756 375.77524257 C208.81933598 372.04450823 209.17961702 368.31409544 209.53939819 364.58363342 C210.14172428 358.33290788 210.74146474 352.08193845 211.33959961 345.83081055 C212.03038771 338.61167136 212.72519818 331.39292781 213.4221493 324.1743812 C214.09500122 317.20458229 214.76515388 310.23452644 215.43403244 303.26434517 C215.71786286 300.30705107 216.0026124 297.34984763 216.28810501 294.39271355 C216.68581674 290.27159363 217.07956763 286.15010461 217.47290039 282.02856445 C217.5913179 280.80618576 217.70973541 279.58380707 217.83174133 278.3243866 C217.93823502 277.20183472 218.0447287 276.07928284 218.15444946 274.92271423 C218.2477183 273.94997024 218.34098713 272.97722624 218.43708229 271.97500515 C218.62633818 269.40179142 218.67054682 266.86954057 218.63452148 264.29052734 C217.90726364 264.29718918 217.1800058 264.30385101 216.43070984 264.31071472 C209.53231564 264.3711582 202.6339617 264.41666918 195.73536968 264.44596386 C192.18983732 264.46153159 188.64452619 264.48260399 185.09912109 264.5168457 C181.01064084 264.55607936 176.92238813 264.57030988 172.83374023 264.58349609 C170.95026131 264.60672188 170.95026131 264.60672188 169.0287323 264.63041687 C162.30947142 264.63168521 156.45029792 264.06602447 150.02986145 262.03413391 C144.67430567 260.37156137 141.83463118 260.28508191 136.50952148 262.22802734 C129.01754937 264.685801 122.62506338 264.95561766 114.88452148 263.66552734 C110.97617468 263.21456425 108.383922 264.17228509 104.63452148 265.29052734 C98.08119479 265.72741579 92.04623813 264.61058665 85.63452148 263.29052734 C84.9809668 264.39460938 84.9809668 264.39460938 84.31420898 265.52099609 C80.26017092 272.16365153 76.33329853 278.57331191 68.63452148 281.29052734 C61.37631951 282.74216774 56.08918921 282.08695456 49.50952148 278.66552734 C44.4095473 274.45250519 40.86340311 269.03076135 37.63452148 263.29052734 C36.93327148 263.43490234 36.23202148 263.57927734 35.50952148 263.72802734 C28.24119056 265.15009209 21.76813514 266.24507121 14.50952148 264.22802734 C10.49879569 263.25769046 8.59983262 263.49746512 4.63452148 264.29052734 C-1.93514489 264.82540284 -7.53223298 263.96775308 -13.82250977 262.04443359 C-19.60722174 260.26855336 -19.60722174 260.26855336 -25.30297852 261.66552734 Z " fill="#000000" transform="translate(197.365478515625,35.70947265625)"/>
<path d="M0 0 C0.64324219 0.43183594 1.28648437 0.86367187 1.94921875 1.30859375 C2.64402344 1.77136719 3.33882813 2.23414063 4.0546875 2.7109375 C10.36511873 7.55327591 14.98144261 14.29843256 16.26269531 22.25537109 C17.24051532 32.48808551 15.46807496 40.92681366 9.82421875 49.55859375 C2.87046477 56.2100106 -5.18942842 60.24497194 -14.86328125 60.62109375 C-23.96788065 60.38622548 -31.42865287 57.603176 -38.05078125 51.30859375 C-44.84956487 44.00105761 -47.70941581 36.11041529 -47.40234375 26.14453125 C-46.34069448 17.58056047 -42.76541975 9.08030455 -35.94140625 3.62109375 C-25.87005054 -3.40857735 -11.29623244 -6.218307 0 0 Z M-26.98828125 18.93359375 C-29.5490289 23.12390809 -30.34083332 26.42165583 -30.05078125 31.30859375 C-28.45385281 36.19331605 -25.59556175 39.83945976 -21.05078125 42.30859375 C-16.63268483 43.59918464 -13.18103452 43.67809963 -8.80078125 42.24609375 C-4.33587708 39.10036581 -1.59295875 36.17232891 -0.05078125 30.87109375 C-0.05078125 25.32455127 -1.87300748 21.82287431 -5.23828125 17.49609375 C-12.82340199 11.5965554 -20.01329595 12.70062816 -26.98828125 18.93359375 Z " fill="#000000" transform="translate(274.05078125,211.69140625)"/>
<path d="M0 0 C1.17655403 -0.00855011 1.17655403 -0.00855011 2.37687683 -0.01727295 C4.03875376 -0.0267264 5.70064947 -0.0332583 7.36254883 -0.03710938 C9.89763413 -0.04679729 12.43190254 -0.07780904 14.96679688 -0.109375 C16.58202644 -0.11590697 18.1972618 -0.12115668 19.8125 -0.125 C20.94556328 -0.1435202 20.94556328 -0.1435202 22.10151672 -0.16241455 C26.6149066 -0.1434415 29.52562515 0.39329195 33.10546875 3.203125 C34.67018108 6.33254965 34.80248833 9.81394723 34.10546875 13.203125 C32.4493288 15.57424683 31.12641868 16.99855904 28.22431946 17.58004761 C25.84277395 17.73361187 23.49191379 17.75733037 21.10546875 17.734375 C20.23277344 17.7382019 19.36007812 17.74202881 18.4609375 17.74597168 C16.61847783 17.7486899 14.77597951 17.74133494 12.93359375 17.72460938 C10.11500941 17.70319748 7.2989739 17.72441301 4.48046875 17.75 C2.68879646 17.74735671 0.89712576 17.74223169 -0.89453125 17.734375 C-1.73628906 17.74247192 -2.57804687 17.75056885 -3.4453125 17.75891113 C-9.28168743 17.66547899 -9.28168743 17.66547899 -12.42382812 15.29492188 C-14.46583391 12.39055509 -14.45998699 10.55503785 -14.29296875 7.10546875 C-13.68557548 4.20546361 -12.22953333 2.92003829 -9.89453125 1.203125 C-6.7683947 -0.35994327 -3.43292502 0.01916022 0 0 Z " fill="#000000" transform="translate(341.89453125,418.796875)"/>
<path d="M0 0 C1.17655403 -0.00855011 1.17655403 -0.00855011 2.37687683 -0.01727295 C4.03875376 -0.0267264 5.70064947 -0.0332583 7.36254883 -0.03710938 C9.89763413 -0.04679729 12.43190254 -0.07780904 14.96679688 -0.109375 C16.58202644 -0.11590697 18.1972618 -0.12115668 19.8125 -0.125 C20.94556328 -0.1435202 20.94556328 -0.1435202 22.10151672 -0.16241455 C26.6149066 -0.1434415 29.52562515 0.39329195 33.10546875 3.203125 C34.67018108 6.33254965 34.80248833 9.81394723 34.10546875 13.203125 C32.4493288 15.57424683 31.12641868 16.99855904 28.22431946 17.58004761 C25.84277395 17.73361187 23.49191379 17.75733037 21.10546875 17.734375 C20.23277344 17.7382019 19.36007812 17.74202881 18.4609375 17.74597168 C16.61847783 17.7486899 14.77597951 17.74133494 12.93359375 17.72460938 C10.11500941 17.70319748 7.2989739 17.72441301 4.48046875 17.75 C2.68879646 17.74735671 0.89712576 17.74223169 -0.89453125 17.734375 C-1.73628906 17.74247192 -2.57804687 17.75056885 -3.4453125 17.75891113 C-9.28168743 17.66547899 -9.28168743 17.66547899 -12.42382812 15.29492188 C-14.46583391 12.39055509 -14.45998699 10.55503785 -14.29296875 7.10546875 C-13.68557548 4.20546361 -12.22953333 2.92003829 -9.89453125 1.203125 C-6.7683947 -0.35994327 -3.43292502 0.01916022 0 0 Z " fill="#000000" transform="translate(277.89453125,418.796875)"/>
<path d="M0 0 C1.17655403 -0.00855011 1.17655403 -0.00855011 2.37687683 -0.01727295 C4.03875376 -0.0267264 5.70064947 -0.0332583 7.36254883 -0.03710938 C9.89763413 -0.04679729 12.43190254 -0.07780904 14.96679688 -0.109375 C16.58202644 -0.11590697 18.1972618 -0.12115668 19.8125 -0.125 C20.94556328 -0.1435202 20.94556328 -0.1435202 22.10151672 -0.16241455 C26.6149066 -0.1434415 29.52562515 0.39329195 33.10546875 3.203125 C34.67018108 6.33254965 34.80248833 9.81394723 34.10546875 13.203125 C32.4493288 15.57424683 31.12641868 16.99855904 28.22431946 17.58004761 C25.84277395 17.73361187 23.49191379 17.75733037 21.10546875 17.734375 C20.23277344 17.7382019 19.36007813 17.74202881 18.4609375 17.74597168 C16.61847783 17.7486899 14.77597951 17.74133494 12.93359375 17.72460938 C10.11500941 17.70319748 7.2989739 17.72441301 4.48046875 17.75 C2.68879646 17.74735671 0.89712576 17.74223169 -0.89453125 17.734375 C-1.73628906 17.74247192 -2.57804688 17.75056885 -3.4453125 17.75891113 C-9.28168743 17.66547899 -9.28168743 17.66547899 -12.42382812 15.29492188 C-14.46583391 12.39055509 -14.45998699 10.55503785 -14.29296875 7.10546875 C-13.68557548 4.20546361 -12.22953333 2.92003829 -9.89453125 1.203125 C-6.7683947 -0.35994327 -3.43292502 0.01916022 0 0 Z " fill="#000000" transform="translate(213.89453125,418.796875)"/>
<path d="M0 0 C1.17655403 -0.00855011 1.17655403 -0.00855011 2.37687683 -0.01727295 C4.03875376 -0.0267264 5.70064947 -0.0332583 7.36254883 -0.03710938 C9.89763413 -0.04679729 12.43190254 -0.07780904 14.96679688 -0.109375 C16.58202644 -0.11590697 18.1972618 -0.12115668 19.8125 -0.125 C20.94556328 -0.1435202 20.94556328 -0.1435202 22.10151672 -0.16241455 C26.6149066 -0.1434415 29.52562515 0.39329195 33.10546875 3.203125 C34.67018108 6.33254965 34.80248833 9.81394723 34.10546875 13.203125 C32.4493288 15.57424683 31.12641868 16.99855904 28.22431946 17.58004761 C25.84277395 17.73361187 23.49191379 17.75733037 21.10546875 17.734375 C20.23277344 17.7382019 19.36007813 17.74202881 18.4609375 17.74597168 C16.61847783 17.7486899 14.77597951 17.74133494 12.93359375 17.72460938 C10.11500941 17.70319748 7.2989739 17.72441301 4.48046875 17.75 C2.68879646 17.74735671 0.89712576 17.74223169 -0.89453125 17.734375 C-1.73628906 17.74247192 -2.57804688 17.75056885 -3.4453125 17.75891113 C-9.28168743 17.66547899 -9.28168743 17.66547899 -12.42382812 15.29492188 C-14.46583391 12.39055509 -14.45998699 10.55503785 -14.29296875 7.10546875 C-13.68557548 4.20546361 -12.22953333 2.92003829 -9.89453125 1.203125 C-6.7683947 -0.35994327 -3.43292502 0.01916022 0 0 Z " fill="#000000" transform="translate(149.89453125,418.796875)"/>
<path d="M0 0 C1.17655403 -0.00855011 1.17655403 -0.00855011 2.37687683 -0.01727295 C4.03875376 -0.0267264 5.70064947 -0.0332583 7.36254883 -0.03710938 C9.89763413 -0.04679729 12.43190254 -0.07780904 14.96679688 -0.109375 C16.58202644 -0.11590697 18.1972618 -0.12115668 19.8125 -0.125 C20.94556328 -0.1435202 20.94556328 -0.1435202 22.10151672 -0.16241455 C26.6149066 -0.1434415 29.52562515 0.39329195 33.10546875 3.203125 C34.67018108 6.33254965 34.80248833 9.81394723 34.10546875 13.203125 C32.4493288 15.57424683 31.12641868 16.99855904 28.22431946 17.58004761 C25.84277395 17.73361187 23.49191379 17.75733037 21.10546875 17.734375 C20.23277344 17.7382019 19.36007812 17.74202881 18.4609375 17.74597168 C16.61847783 17.7486899 14.77597951 17.74133494 12.93359375 17.72460938 C10.11500941 17.70319748 7.2989739 17.72441301 4.48046875 17.75 C2.68879646 17.74735671 0.89712576 17.74223169 -0.89453125 17.734375 C-1.73628906 17.74247192 -2.57804687 17.75056885 -3.4453125 17.75891113 C-9.28168743 17.66547899 -9.28168743 17.66547899 -12.42382812 15.29492188 C-14.46583391 12.39055509 -14.45998699 10.55503785 -14.29296875 7.10546875 C-13.68557548 4.20546361 -12.22953333 2.92003829 -9.89453125 1.203125 C-6.7683947 -0.35994327 -3.43292502 0.01916022 0 0 Z " fill="#000000" transform="translate(341.89453125,370.796875)"/>
<path d="M0 0 C1.17655403 -0.00855011 1.17655403 -0.00855011 2.37687683 -0.01727295 C4.03875376 -0.0267264 5.70064947 -0.0332583 7.36254883 -0.03710938 C9.89763413 -0.04679729 12.43190254 -0.07780904 14.96679688 -0.109375 C16.58202644 -0.11590697 18.1972618 -0.12115668 19.8125 -0.125 C20.94556328 -0.1435202 20.94556328 -0.1435202 22.10151672 -0.16241455 C26.6149066 -0.1434415 29.52562515 0.39329195 33.10546875 3.203125 C34.67018108 6.33254965 34.80248833 9.81394723 34.10546875 13.203125 C32.4493288 15.57424683 31.12641868 16.99855904 28.22431946 17.58004761 C25.84277395 17.73361187 23.49191379 17.75733037 21.10546875 17.734375 C20.23277344 17.7382019 19.36007812 17.74202881 18.4609375 17.74597168 C16.61847783 17.7486899 14.77597951 17.74133494 12.93359375 17.72460938 C10.11500941 17.70319748 7.2989739 17.72441301 4.48046875 17.75 C2.68879646 17.74735671 0.89712576 17.74223169 -0.89453125 17.734375 C-1.73628906 17.74247192 -2.57804687 17.75056885 -3.4453125 17.75891113 C-9.28168743 17.66547899 -9.28168743 17.66547899 -12.42382812 15.29492188 C-14.46583391 12.39055509 -14.45998699 10.55503785 -14.29296875 7.10546875 C-13.68557548 4.20546361 -12.22953333 2.92003829 -9.89453125 1.203125 C-6.7683947 -0.35994327 -3.43292502 0.01916022 0 0 Z " fill="#000000" transform="translate(277.89453125,370.796875)"/>
<path d="M0 0 C1.17655403 -0.00855011 1.17655403 -0.00855011 2.37687683 -0.01727295 C4.03875376 -0.0267264 5.70064947 -0.0332583 7.36254883 -0.03710938 C9.89763413 -0.04679729 12.43190254 -0.07780904 14.96679688 -0.109375 C16.58202644 -0.11590697 18.1972618 -0.12115668 19.8125 -0.125 C20.94556328 -0.1435202 20.94556328 -0.1435202 22.10151672 -0.16241455 C26.6149066 -0.1434415 29.52562515 0.39329195 33.10546875 3.203125 C34.67018108 6.33254965 34.80248833 9.81394723 34.10546875 13.203125 C32.4493288 15.57424683 31.12641868 16.99855904 28.22431946 17.58004761 C25.84277395 17.73361187 23.49191379 17.75733037 21.10546875 17.734375 C20.23277344 17.7382019 19.36007813 17.74202881 18.4609375 17.74597168 C16.61847783 17.7486899 14.77597951 17.74133494 12.93359375 17.72460938 C10.11500941 17.70319748 7.2989739 17.72441301 4.48046875 17.75 C2.68879646 17.74735671 0.89712576 17.74223169 -0.89453125 17.734375 C-1.73628906 17.74247192 -2.57804688 17.75056885 -3.4453125 17.75891113 C-9.28168743 17.66547899 -9.28168743 17.66547899 -12.42382812 15.29492188 C-14.46583391 12.39055509 -14.45998699 10.55503785 -14.29296875 7.10546875 C-13.68557548 4.20546361 -12.22953333 2.92003829 -9.89453125 1.203125 C-6.7683947 -0.35994327 -3.43292502 0.01916022 0 0 Z " fill="#000000" transform="translate(213.89453125,370.796875)"/>
<path d="M0 0 C1.17655403 -0.00855011 1.17655403 -0.00855011 2.37687683 -0.01727295 C4.03875376 -0.0267264 5.70064947 -0.0332583 7.36254883 -0.03710938 C9.89763413 -0.04679729 12.43190254 -0.07780904 14.96679688 -0.109375 C16.58202644 -0.11590697 18.1972618 -0.12115668 19.8125 -0.125 C20.94556328 -0.1435202 20.94556328 -0.1435202 22.10151672 -0.16241455 C26.6149066 -0.1434415 29.52562515 0.39329195 33.10546875 3.203125 C34.67018108 6.33254965 34.80248833 9.81394723 34.10546875 13.203125 C32.4493288 15.57424683 31.12641868 16.99855904 28.22431946 17.58004761 C25.84277395 17.73361187 23.49191379 17.75733037 21.10546875 17.734375 C20.23277344 17.7382019 19.36007813 17.74202881 18.4609375 17.74597168 C16.61847783 17.7486899 14.77597951 17.74133494 12.93359375 17.72460938 C10.11500941 17.70319748 7.2989739 17.72441301 4.48046875 17.75 C2.68879646 17.74735671 0.89712576 17.74223169 -0.89453125 17.734375 C-1.73628906 17.74247192 -2.57804688 17.75056885 -3.4453125 17.75891113 C-9.28168743 17.66547899 -9.28168743 17.66547899 -12.42382812 15.29492188 C-14.46583391 12.39055509 -14.45998699 10.55503785 -14.29296875 7.10546875 C-13.68557548 4.20546361 -12.22953333 2.92003829 -9.89453125 1.203125 C-6.7683947 -0.35994327 -3.43292502 0.01916022 0 0 Z " fill="#000000" transform="translate(149.89453125,370.796875)"/>
<path d="M0 0 C1.17655403 -0.00855011 1.17655403 -0.00855011 2.37687683 -0.01727295 C4.03875376 -0.0267264 5.70064947 -0.0332583 7.36254883 -0.03710938 C9.89763413 -0.04679729 12.43190254 -0.07780904 14.96679688 -0.109375 C16.58202644 -0.11590697 18.1972618 -0.12115668 19.8125 -0.125 C20.94556328 -0.1435202 20.94556328 -0.1435202 22.10151672 -0.16241455 C26.6149066 -0.1434415 29.52562515 0.39329195 33.10546875 3.203125 C34.67018108 6.33254965 34.80248833 9.81394723 34.10546875 13.203125 C32.4493288 15.57424683 31.12641868 16.99855904 28.22431946 17.58004761 C25.84277395 17.73361187 23.49191379 17.75733037 21.10546875 17.734375 C20.23277344 17.7382019 19.36007812 17.74202881 18.4609375 17.74597168 C16.61847783 17.7486899 14.77597951 17.74133494 12.93359375 17.72460938 C10.11500941 17.70319748 7.2989739 17.72441301 4.48046875 17.75 C2.68879646 17.74735671 0.89712576 17.74223169 -0.89453125 17.734375 C-1.73628906 17.74247192 -2.57804687 17.75056885 -3.4453125 17.75891113 C-9.28168743 17.66547899 -9.28168743 17.66547899 -12.42382812 15.29492188 C-14.46583391 12.39055509 -14.45998699 10.55503785 -14.29296875 7.10546875 C-13.68557548 4.20546361 -12.22953333 2.92003829 -9.89453125 1.203125 C-6.7683947 -0.35994327 -3.43292502 0.01916022 0 0 Z " fill="#000000" transform="translate(341.89453125,322.796875)"/>
<path d="M0 0 C1.17655403 -0.00855011 1.17655403 -0.00855011 2.37687683 -0.01727295 C4.03875376 -0.0267264 5.70064947 -0.0332583 7.36254883 -0.03710938 C9.89763413 -0.04679729 12.43190254 -0.07780904 14.96679688 -0.109375 C16.58202644 -0.11590697 18.1972618 -0.12115668 19.8125 -0.125 C20.94556328 -0.1435202 20.94556328 -0.1435202 22.10151672 -0.16241455 C26.6149066 -0.1434415 29.52562515 0.39329195 33.10546875 3.203125 C34.67018108 6.33254965 34.80248833 9.81394723 34.10546875 13.203125 C32.4493288 15.57424683 31.12641868 16.99855904 28.22431946 17.58004761 C25.84277395 17.73361187 23.49191379 17.75733037 21.10546875 17.734375 C20.23277344 17.7382019 19.36007812 17.74202881 18.4609375 17.74597168 C16.61847783 17.7486899 14.77597951 17.74133494 12.93359375 17.72460938 C10.11500941 17.70319748 7.2989739 17.72441301 4.48046875 17.75 C2.68879646 17.74735671 0.89712576 17.74223169 -0.89453125 17.734375 C-1.73628906 17.74247192 -2.57804687 17.75056885 -3.4453125 17.75891113 C-9.28168743 17.66547899 -9.28168743 17.66547899 -12.42382812 15.29492188 C-14.46583391 12.39055509 -14.45998699 10.55503785 -14.29296875 7.10546875 C-13.68557548 4.20546361 -12.22953333 2.92003829 -9.89453125 1.203125 C-6.7683947 -0.35994327 -3.43292502 0.01916022 0 0 Z " fill="#000000" transform="translate(277.89453125,322.796875)"/>
<path d="M0 0 C1.17655403 -0.00855011 1.17655403 -0.00855011 2.37687683 -0.01727295 C4.03875376 -0.0267264 5.70064947 -0.0332583 7.36254883 -0.03710938 C9.89763413 -0.04679729 12.43190254 -0.07780904 14.96679688 -0.109375 C16.58202644 -0.11590697 18.1972618 -0.12115668 19.8125 -0.125 C20.94556328 -0.1435202 20.94556328 -0.1435202 22.10151672 -0.16241455 C26.6149066 -0.1434415 29.52562515 0.39329195 33.10546875 3.203125 C34.67018108 6.33254965 34.80248833 9.81394723 34.10546875 13.203125 C32.4493288 15.57424683 31.12641868 16.99855904 28.22431946 17.58004761 C25.84277395 17.73361187 23.49191379 17.75733037 21.10546875 17.734375 C20.23277344 17.7382019 19.36007813 17.74202881 18.4609375 17.74597168 C16.61847783 17.7486899 14.77597951 17.74133494 12.93359375 17.72460938 C10.11500941 17.70319748 7.2989739 17.72441301 4.48046875 17.75 C2.68879646 17.74735671 0.89712576 17.74223169 -0.89453125 17.734375 C-1.73628906 17.74247192 -2.57804688 17.75056885 -3.4453125 17.75891113 C-9.28168743 17.66547899 -9.28168743 17.66547899 -12.42382812 15.29492188 C-14.46583391 12.39055509 -14.45998699 10.55503785 -14.29296875 7.10546875 C-13.68557548 4.20546361 -12.22953333 2.92003829 -9.89453125 1.203125 C-6.7683947 -0.35994327 -3.43292502 0.01916022 0 0 Z " fill="#000000" transform="translate(213.89453125,322.796875)"/>
<path d="M0 0 C1.17655403 -0.00855011 1.17655403 -0.00855011 2.37687683 -0.01727295 C4.03875376 -0.0267264 5.70064947 -0.0332583 7.36254883 -0.03710938 C9.89763413 -0.04679729 12.43190254 -0.07780904 14.96679688 -0.109375 C16.58202644 -0.11590697 18.1972618 -0.12115668 19.8125 -0.125 C20.94556328 -0.1435202 20.94556328 -0.1435202 22.10151672 -0.16241455 C26.6149066 -0.1434415 29.52562515 0.39329195 33.10546875 3.203125 C34.67018108 6.33254965 34.80248833 9.81394723 34.10546875 13.203125 C32.4493288 15.57424683 31.12641868 16.99855904 28.22431946 17.58004761 C25.84277395 17.73361187 23.49191379 17.75733037 21.10546875 17.734375 C20.23277344 17.7382019 19.36007813 17.74202881 18.4609375 17.74597168 C16.61847783 17.7486899 14.77597951 17.74133494 12.93359375 17.72460938 C10.11500941 17.70319748 7.2989739 17.72441301 4.48046875 17.75 C2.68879646 17.74735671 0.89712576 17.74223169 -0.89453125 17.734375 C-1.73628906 17.74247192 -2.57804688 17.75056885 -3.4453125 17.75891113 C-9.28168743 17.66547899 -9.28168743 17.66547899 -12.42382812 15.29492188 C-14.46583391 12.39055509 -14.45998699 10.55503785 -14.29296875 7.10546875 C-13.68557548 4.20546361 -12.22953333 2.92003829 -9.89453125 1.203125 C-6.7683947 -0.35994327 -3.43292502 0.01916022 0 0 Z " fill="#000000" transform="translate(149.89453125,322.796875)"/>
</svg>
