<?xml version="1.0" ?><svg xmlns="http://www.w3.org/2000/svg" xmlns:xlink="http://www.w3.org/1999/xlink" version="1.1" viewBox="0 0 64 64" style="enable-background:new 0 0 64 64;" xml:space="preserve"><g id="clematic"/><g id="begonia"/><g id="bluebell"/><g id="hibiscus"/><g id="violet"><path d="M41.9,38.2c3.9-2.7,4.1-7,4.1-7.2c0-0.3-0.1-0.5-0.3-0.7C45.5,30.1,45.3,30,45,30c-0.2,0-6,0.1-9.8,2.8   c-0.9,0.7-1.7,1.4-2.2,2.2v-4.1c0.7-0.2,1.3-0.5,1.8-1.1c0.7-0.8,1.1-1.8,1-2.9l-0.1-1.2l0.8,0.9c0.1,0.1,0.1,0.2,0.2,0.2   c0.7,0.7,1.7,1.1,2.6,1.1c1,0,1.9-0.4,2.6-1.1c0.7-0.7,1.1-1.8,1.1-2.8c0-1-0.5-2-1.3-2.7l-0.9-0.8l1.2,0.1c0.1,0,0.2,0,0.4,0   c2.1,0,3.8-1.7,3.8-3.7c0-1-0.4-2-1.2-2.8c-0.8-0.7-1.8-1.1-2.9-1l-1.2,0.1l0.9-0.8c0.1-0.1,0.2-0.1,0.2-0.2c1.5-1.5,1.4-3.8,0-5.3   C41.2,6.4,40.1,6,39.1,6c-1,0-2,0.5-2.7,1.3l-0.8,0.9l0.1-1.1c0-0.1,0-0.2,0-0.4C35.7,4.7,34.1,3,32,3c-1,0-2,0.4-2.8,1.2   c-0.7,0.8-1.1,1.8-1,2.9l0.1,1.2l-0.8-0.9c-0.1-0.1-0.1-0.2-0.2-0.2c-1.5-1.5-3.8-1.4-5.3,0C21.4,7.8,21,8.9,21,9.9   c0,1,0.5,2,1.3,2.7l0.9,0.8l-1.2-0.1c-0.1,0-0.2,0-0.4,0c-2.1,0-3.8,1.7-3.8,3.7c0,1,0.4,2,1.2,2.8c0.7,0.6,1.6,1,2.5,1   c0.1,0,0.2,0,0.3,0l1.2-0.1l-0.9,0.8c-0.1,0.1-0.2,0.1-0.2,0.2c-1.5,1.5-1.4,3.8,0,5.3c0.7,0.7,1.7,1.1,2.6,1.1c0.1,0,0.1,0,0.2,0   c1,0,2-0.5,2.7-1.3l0.8-0.9l-0.1,1.1c0,0.1,0,0.2,0,0.4c0,1.7,1.2,3.2,2.7,3.6v4c-0.6-0.7-1.3-1.5-2.2-2.1   c-3.8-2.6-9.5-2.7-9.8-2.8c-0.3,0-0.5,0.1-0.7,0.3c-0.2,0.2-0.3,0.5-0.3,0.7c0,0.2,0.2,4.5,4.1,7.2c2.9,2,7,2.6,8.8,2.7v2H21   c-0.6,0-1,0.4-1,1v4c0,0.6,0.4,1,1,1h1v6c0,3.3,2.7,6,6,6h8c3.3,0,6-2.7,6-6v-6h1c0.6,0,1-0.4,1-1v-4c0-0.6-0.4-1-1-1H33v-2   C34.8,40.8,38.9,40.3,41.9,38.2z M36.4,34.4c2.3-1.6,5.7-2.1,7.4-2.3c-0.3,1.2-1.1,3.1-3.1,4.5c-2.3,1.6-5.7,2.1-7.4,2.3   C33.6,37.7,34.4,35.8,36.4,34.4z M23.3,36.6c-2-1.4-2.8-3.3-3.1-4.5c1.8,0.2,5.1,0.7,7.4,2.3c2,1.4,2.8,3.3,3.1,4.5   C29,38.8,25.6,38.2,23.3,36.6z M40,55c0,2.2-1.8,4-4,4h-8c-2.2,0-4-1.8-4-4v-6h16V55z M42,47h-1H23h-1v-2h20V47z M30,17   c0-1.1,0.9-2,2-2s2,0.9,2,2s-0.9,2-2,2S30,18.1,30,17z M40.4,22.9c0.4,0.3,0.6,0.8,0.6,1.3c0,0.5-0.2,1-0.5,1.3   c-0.7,0.7-1.8,0.7-2.5,0c0,0-0.1-0.1-0.1-0.1l-2.6-3.1l-0.2-2.1l2.1,0.2L40.4,22.9z M42.1,15.3c0.5,0,1,0.1,1.3,0.5   c0.4,0.3,0.6,0.8,0.6,1.3c0,1-0.8,1.7-1.8,1.7c0,0-0.1,0-0.1,0l-6.3-0.6c0.1-0.4,0.2-0.8,0.2-1.2c0-0.4-0.1-0.8-0.2-1.2L42.1,15.3z    M37.9,8.6C38.2,8.3,38.7,8,39.2,8c0.5,0,1,0.2,1.3,0.5c0.7,0.7,0.7,1.8,0,2.5c0,0-0.1,0.1-0.1,0.1l-3.1,2.6l-2.1,0.2l0.2-2.1   L37.9,8.6z M30.7,5.6C31.1,5.2,31.5,5,32,5c1,0,1.7,0.8,1.7,1.8c0,0,0,0.1,0,0.1l-0.6,6.3C32.8,13.1,32.4,13,32,13   s-0.8,0.1-1.2,0.2l-0.6-6.3C30.2,6.4,30.4,5.9,30.7,5.6z M23.6,11.1c-0.4-0.3-0.6-0.8-0.6-1.3c0-0.5,0.2-1,0.5-1.3   c0.7-0.7,1.8-0.7,2.5,0c0,0,0.1,0.1,0.1,0.1l2.6,3.1l0.2,2.1l-2.1-0.2L23.6,11.1z M21.9,18.7c-0.5,0-1-0.1-1.3-0.5   C20.2,17.9,20,17.5,20,17c0-1,0.8-1.7,1.8-1.7c0,0,0.1,0,0.1,0l6.3,0.6C28.1,16.2,28,16.6,28,17c0,0.4,0.1,0.8,0.2,1.2L21.9,18.7z    M26.1,25.4c-0.3,0.4-0.8,0.6-1.3,0.6c-0.5,0-1-0.2-1.3-0.5c-0.7-0.7-0.7-1.8,0-2.5c0,0,0.1-0.1,0.1-0.1l3.1-2.6l2.1-0.2l-0.2,2.1   L26.1,25.4z M30.3,27.3c0,0,0-0.1,0-0.1l0.6-6.3c0.4,0.1,0.8,0.2,1.2,0.2c0.4,0,0.8-0.1,1.2-0.2l0.6,6.3c0,0.5-0.1,1-0.5,1.3   C32.9,28.8,32.5,29,32,29C31,29,30.3,28.2,30.3,27.3z"/></g><g id="orchid"/><g id="peach_lily"/><g id="sanseveriera"/><g id="monstera"/><g id="lotus"/><g id="tulip"/><g id="sunflower"/><g id="jasmine"/><g id="cactus_1_"/><g id="aloevera"/><g id="bamboo"/><g id="bonsai"/><g id="cacti"/><g id="cactus"/><g id="rose"/></svg>