<?xml version="1.0" ?><svg xmlns="http://www.w3.org/2000/svg" xmlns:xlink="http://www.w3.org/1999/xlink" version="1.1" viewBox="0 0 64 64" style="enable-background:new 0 0 64 64;" xml:space="preserve"><g id="clematic"/><g id="begonia"/><g id="bluebell"/><g id="hibiscus"/><g id="violet"/><g id="orchid"/><g id="peach_lily"/><g id="sanseveriera"/><g id="monstera"><path d="M60.8,26.7c-0.6-1.4-2.3-2.1-4.1-2.7c-0.9-0.3-1.3-0.7-1.3-1c0-0.1,0-0.2,0-0.2c0.1-0.1,0.3-0.1,0.5,0.1   c1.4,0.7,2.9,1.4,4.1,0.5c0.9-0.7,1.1-2.1,0.5-4.6c-1-4.8-8-5.6-10.6-5.8c-0.2-2.7-1.4-4.8-3.4-6.2c-1.8-1.2-4.1-1.5-6-0.8   c-3.3,1.3-6.1,5.9-7.8,9.7C32.4,9.7,31,3,27,3c-3.6,0-7.1,3.5-8.3,4.8c-0.1,0-0.1,0-0.2-0.1c-1.1-0.4-9.7-2.9-13.3,3.5   c-4.2,7.6-2.4,16,4.6,22.4c0.2,0.2,0.4,0.3,0.7,0.3c0.2,0,0.4,0,0.5-0.1c0.4-0.2,0.6-0.7,0.4-1.1c-0.4-1.4-0.7-4.1-0.1-5.3   c0.2-0.4,0.5-0.9,0.8-1.3c0.8-1.2,1.6-2.4,1.3-3.6c-0.2-0.7-0.7-1.2-1.5-1.5c-1.1-0.5-2-1.5-2.4-2.1c0.5,0,1,0.2,1.4,0.4   c1.2,0.5,2.6,1,4.5-0.7c0.6-0.6,1-1.2,0.9-1.9c0-1.1-0.9-1.9-1.7-2.5c-0.4-0.3-0.8-0.7-1-1c0.3,0.2,0.7,0.4,1.1,0.6   c0.6,0.3,1.2,0.7,1.8,1c0.8,0.4,1.6,0.2,2.2-0.3c1-1,1.2-3.4,0.9-4.9C20.4,8.9,23.8,5,27,5c2.4,0,4,6.4,4,16v1.5   c-0.4-0.7-0.9-1.4-1.5-2c-3.2-3.2-7.9-3.5-8.1-3.5c-0.3,0-0.6,0.1-0.8,0.3c-0.2,0.2-0.3,0.5-0.3,0.8c0,0.2,0.3,4.9,3.5,8.1   c2.4,2.4,5.6,3.2,7.2,3.4V41H19c-0.6,0-1,0.4-1,1v4c0,0.6,0.4,1,1,1h1v13c0,0.6,0.4,1,1,1h22c0.6,0,1-0.4,1-1V47h1c0.6,0,1-0.4,1-1   v-4c0-0.6-0.4-1-1-1H33v-2.4c1-0.2,2.6-0.7,3.8-1.9c1.9-1.9,2.1-4.6,2.1-4.7c0-0.3-0.1-0.6-0.3-0.8c-0.2-0.2-0.5-0.3-0.8-0.3   c-0.1,0-2.9,0.2-4.7,2.1c0,0,0,0.1-0.1,0.1V21c0.1-1.3,4.1-11.4,8.4-13.1c1.2-0.5,2.8-0.3,4.1,0.6c1.4,1,2.3,2.5,2.5,4.5   c-2.7,0.2-9.5,1.1-10.5,5.8c-0.5,2.5-0.4,3.9,0.5,4.6c1.1,0.9,2.6,0.2,4.1-0.5c0.3-0.1,0.5-0.1,0.5-0.1c0,0,0.1,0.1,0,0.2   c-0.1,0.3-0.4,0.7-1.3,1c-1.8,0.6-3.5,1.3-4.1,2.7c-0.3,0.8-0.2,1.7,0.3,2.8c1.5,2.8,4.5,1.5,6.6,0.4c0.3-0.1,0.4-0.1,0.4-0.1   c0,0.1-0.4,0.9-2.1,1.3c-2.4,0.6-2.8,2-2.8,2.7c-0.1,2.2,2.5,4.4,4.9,5.2c2.6,0.8,3.6,3.3,3.6,3.4c0,0,0,0,0,0c0,0,0,0.1,0,0.1   c0,0.1,0.1,0.1,0.1,0.2c0,0,0.1,0.1,0.1,0.1c0.1,0.1,0.1,0.1,0.2,0.1c0,0,0.1,0,0.1,0.1c0.1,0,0.2,0.1,0.3,0.1c0,0,0,0,0,0   c0,0,0,0,0.1,0c0.1,0,0.2,0,0.3-0.1c0,0,0.1,0,0.1-0.1c0.1,0,0.1-0.1,0.2-0.1c0,0,0.1-0.1,0.1-0.1c0.1-0.1,0.1-0.1,0.1-0.2   c0,0,0-0.1,0.1-0.1c0,0,0,0,0,0c0-0.1,1-2.6,3.6-3.4c2.4-0.8,4.9-3,4.9-5.2c0-0.8-0.4-2.2-2.8-2.7c-1.8-0.4-2.2-1.2-2.2-1.2   c0,0,0.2,0,0.5,0.1c2.2,1,5.1,2.4,6.6-0.4C61,28.4,61.1,27.5,60.8,26.7z M17.6,12.9C17.6,12.9,17.6,12.9,17.6,12.9   c-0.6-0.3-1.1-0.6-1.7-0.9c-1.4-0.8-2.5-1.4-3.4-0.9c-0.4,0.2-0.8,0.7-0.8,1.7c0,1.3,1,2.2,1.9,2.9c0.3,0.3,1,0.8,1,1   c0,0,0,0.1-0.3,0.4c-1,0.9-1.4,0.7-2.5,0.3c-0.6-0.3-1.4-0.6-2.4-0.6c-1.5,0-1.8,1-1.9,1.3c-0.4,1.7,1.9,3.9,3.7,4.7   c0.3,0.1,0.4,0.2,0.4,0.3c0.1,0.3-0.6,1.3-1,2c-0.3,0.5-0.6,0.9-0.9,1.4c-0.6,1-0.7,2.4-0.6,3.6C2.6,22.5,5.4,15.2,7,12.3   C8.4,9.7,11.1,9,13.5,9c2.1,0,3.9,0.5,4.4,0.7C18.1,10.4,18,12.4,17.6,12.9z M25.2,24.8c-1.8-1.8-2.5-4.2-2.8-5.6   c1.4,0.3,3.8,1,5.6,2.8c1.8,1.8,2.5,4.2,2.8,5.6C29.4,27.3,27,26.5,25.2,24.8z M42,59H22V47h20V59z M44,45h-1H21h-1v-2h24V45z    M34.5,34.4c0.6-0.6,1.4-1,2.1-1.2c-0.2,0.7-0.6,1.5-1.2,2.1c-0.6,0.6-1.4,1-2.1,1.2C33.5,35.8,33.9,35,34.5,34.4z M45.1,37   c-1.9-0.6-3.5-2.3-3.5-3.2c0-0.5,0.8-0.8,1.3-0.9c2.9-0.7,3.5-2.1,3.6-2.7c0.2-0.8-0.1-1.5-0.7-2c-0.4-0.3-0.8-0.4-1.3-0.4   c-0.4,0-0.8,0.1-1.2,0.3c-2.5,1.2-3.5,1.4-4,0.4c-0.3-0.5-0.3-0.8-0.2-1.1c0.2-0.5,1.1-1,2.8-1.5c1.5-0.5,2.5-1.4,2.7-2.6   c0.1-0.8-0.2-1.7-0.8-2.1c-0.7-0.5-1.7-0.6-2.6-0.1c-0.6,0.3-1.7,0.8-1.9,0.8c0,0-0.3-0.5,0.2-2.7c0.6-3,5.8-4,8.6-4.2v23.8   C47.3,38.1,46.3,37.4,45.1,37z M58.7,28.5c-0.5,1-1.5,0.8-4-0.4c-0.9-0.4-1.9-0.4-2.6,0.2c-0.6,0.5-0.8,1.2-0.7,2   c0.1,0.6,0.8,2.1,3.6,2.7c0.5,0.1,1.3,0.4,1.3,0.9c0,0.9-1.6,2.6-3.5,3.2c-1.3,0.4-2.2,1.1-2.9,1.7V15c2.9,0.2,8,1.1,8.6,4.2   c0.4,2.1,0.2,2.6,0.2,2.6c-0.3,0.1-1.4-0.4-2-0.7c-0.9-0.4-1.9-0.4-2.6,0.1c-0.6,0.5-0.9,1.3-0.8,2.1c0.2,1.2,1.2,2.1,2.7,2.6   c1.7,0.5,2.6,1,2.8,1.5C59.1,27.7,59,28.1,58.7,28.5z"/></g><g id="lotus"/><g id="tulip"/><g id="sunflower"/><g id="jasmine"/><g id="cactus_1_"/><g id="aloevera"/><g id="bamboo"/><g id="bonsai"/><g id="cacti"/><g id="cactus"/><g id="rose"/></svg>